<mxfile host="app.diagrams.net" modified="2023-11-13T19:06:24.247Z" agent="Mozilla/5.0 (Windows NT 10.0; Win64; x64) AppleWebKit/537.36 (KHTML, like Gecko) Chrome/119.0.0.0 Safari/537.36 Edg/119.0.0.0" etag="3zcz24yOXiPZ8Oqiwse4" version="22.1.0" type="google">
  <diagram name="Page-1" id="C3AACWnxZTvl1h-b5WP7">
    <mxGraphModel grid="1" page="1" gridSize="10" guides="1" tooltips="1" connect="1" arrows="1" fold="1" pageScale="1" pageWidth="850" pageHeight="1100" math="0" shadow="0">
      <root>
        <mxCell id="0" />
        <mxCell id="1" parent="0" />
        <mxCell id="Lsbw4g7mnwXpiIo-o1B4-1" value="Imperio = {&lt;u&gt;Nome&lt;/u&gt;, &lt;span style=&quot;text-decoration: underline double;&quot;&gt;cor*&lt;/span&gt;, qtd_planetas_dominados*}" style="text;html=1;align=left;verticalAlign=middle;resizable=0;points=[];autosize=1;strokeColor=none;fillColor=none;" vertex="1" parent="1">
          <mxGeometry x="50" y="-110" width="290" height="30" as="geometry" />
        </mxCell>
        <mxCell id="Lsbw4g7mnwXpiIo-o1B4-4" value="Recursos = {&lt;u&gt;Nome&lt;/u&gt;, tamanho}" style="text;html=1;align=left;verticalAlign=middle;resizable=0;points=[];autosize=1;strokeColor=none;fillColor=none;fontSize=12;fontFamily=Helvetica;fontColor=default;" vertex="1" parent="1">
          <mxGeometry x="50" y="120" width="180" height="30" as="geometry" />
        </mxCell>
        <mxCell id="Lsbw4g7mnwXpiIo-o1B4-5" value="Especie = {&lt;u&gt;Nome&lt;/u&gt;, conformidade, trabalho, agressividade, gravidade_min, gravidade_max, agua_min, agua_max, atmosfera_min, atmosfera_max, temperatura_min, temperatura_max, tamanho}&amp;nbsp;" style="text;html=1;align=left;verticalAlign=middle;resizable=0;points=[];autosize=1;strokeColor=none;fillColor=none;fontSize=12;fontFamily=Helvetica;fontColor=default;" vertex="1" parent="1">
          <mxGeometry x="50" y="60" width="1060" height="30" as="geometry" />
        </mxCell>
        <mxCell id="mTyOfikyn7oOmh0rxIlr-37" style="edgeStyle=orthogonalEdgeStyle;rounded=0;orthogonalLoop=1;jettySize=auto;html=1;startArrow=baseDash;startFill=0;startSize=70;" edge="1" parent="1" source="Lsbw4g7mnwXpiIo-o1B4-14" target="Lsbw4g7mnwXpiIo-o1B4-8">
          <mxGeometry relative="1" as="geometry">
            <Array as="points">
              <mxPoint x="250" y="320" />
              <mxPoint x="150" y="320" />
            </Array>
          </mxGeometry>
        </mxCell>
        <mxCell id="Lsbw4g7mnwXpiIo-o1B4-14" value="Recurso_precisa_tecnologia = {&lt;u&gt;NOME, NIVEL, RECURSO&lt;/u&gt;}" style="text;html=1;align=left;verticalAlign=middle;resizable=0;points=[];autosize=1;strokeColor=none;fillColor=none;fontSize=12;fontFamily=Helvetica;fontColor=default;" vertex="1" parent="1">
          <mxGeometry x="40" y="340" width="340" height="30" as="geometry" />
        </mxCell>
        <mxCell id="gEWx3QEfxUd5CWkfhM15-16" value="Move_povo = {&lt;u&gt;IMPERIO&lt;/u&gt;, &lt;u&gt;PLANETA_DESTINO&lt;/u&gt;, &lt;u&gt;TURNO_INICIAL&lt;/u&gt;, &lt;u&gt;PLANETA_ORIGEM&lt;/u&gt;, &lt;u&gt;ESPECIE&lt;/u&gt;, &lt;u&gt;TIPO&lt;/u&gt;, &lt;u&gt;TURNO&lt;/u&gt;, qtd*, qtd_naves*}" style="text;html=1;align=left;verticalAlign=middle;resizable=0;points=[];autosize=1;strokeColor=none;fillColor=none;" vertex="1" parent="1">
          <mxGeometry x="50" y="-200" width="730" height="30" as="geometry" />
        </mxCell>
        <mxCell id="mTyOfikyn7oOmh0rxIlr-56" style="edgeStyle=orthogonalEdgeStyle;rounded=0;orthogonalLoop=1;jettySize=auto;html=1;startArrow=baseDash;startFill=0;startSize=200;endSize=6;targetPerimeterSpacing=0;" edge="1" parent="1" source="gEWx3QEfxUd5CWkfhM15-37" target="Chm7QgpPJBf-2q2Y1dln-6">
          <mxGeometry relative="1" as="geometry">
            <Array as="points">
              <mxPoint x="-780" y="120" />
              <mxPoint x="-530" y="120" />
              <mxPoint x="-530" y="10" />
              <mxPoint x="-330" y="10" />
            </Array>
          </mxGeometry>
        </mxCell>
        <mxCell id="gEWx3QEfxUd5CWkfhM15-37" value="Move_recurso = {&lt;u&gt;IMPÉRIO&lt;/u&gt;, &lt;u&gt;PLANETA_DESTINO&lt;/u&gt;, &lt;u&gt;TURNO_INICIAL&lt;/u&gt;, &lt;u&gt;PLANETA_ORIGEM, RECURSO, TURNO&lt;/u&gt;, qtd*, qtd_naves*}" style="text;html=1;align=right;verticalAlign=middle;resizable=0;points=[];autosize=1;strokeColor=none;fillColor=none;" vertex="1" parent="1">
          <mxGeometry x="-1290" y="70" width="720" height="30" as="geometry" />
        </mxCell>
        <mxCell id="mTyOfikyn7oOmh0rxIlr-70" style="edgeStyle=orthogonalEdgeStyle;rounded=0;orthogonalLoop=1;jettySize=auto;html=1;startArrow=baseDash;startFill=0;startSize=230;" edge="1" parent="1" source="gEWx3QEfxUd5CWkfhM15-42" target="Chm7QgpPJBf-2q2Y1dln-9">
          <mxGeometry relative="1" as="geometry">
            <Array as="points">
              <mxPoint x="1290" y="150" />
              <mxPoint x="1400" y="150" />
            </Array>
          </mxGeometry>
        </mxCell>
        <mxCell id="mTyOfikyn7oOmh0rxIlr-73" style="edgeStyle=orthogonalEdgeStyle;rounded=0;orthogonalLoop=1;jettySize=auto;html=1;jumpStyle=arc;jumpSize=20;" edge="1" parent="1" source="gEWx3QEfxUd5CWkfhM15-42" target="Lsbw4g7mnwXpiIo-o1B4-4">
          <mxGeometry relative="1" as="geometry">
            <Array as="points">
              <mxPoint x="1440" y="100" />
              <mxPoint x="580" y="100" />
              <mxPoint x="580" y="160" />
              <mxPoint x="140" y="160" />
            </Array>
          </mxGeometry>
        </mxCell>
        <mxCell id="gEWx3QEfxUd5CWkfhM15-42" value="gera_recurso = {&lt;u&gt;ESTRUTURA, PLANETA, ESPÉCIE, TURNO&lt;/u&gt;, &lt;u&gt;RECURSO&lt;/u&gt;, qtd*}" style="text;html=1;align=left;verticalAlign=middle;resizable=0;points=[];autosize=1;strokeColor=none;fillColor=none;" vertex="1" parent="1">
          <mxGeometry x="1080" y="110" width="450" height="30" as="geometry" />
        </mxCell>
        <mxCell id="Lsbw4g7mnwXpiIo-o1B4-7" value="Estrutura = {&lt;u&gt;Nome&lt;/u&gt;, tipo*, eficiência*, lotação máxima*}" style="text;html=1;align=left;verticalAlign=middle;resizable=0;points=[];autosize=1;strokeColor=none;fillColor=none;fontSize=12;fontFamily=Helvetica;fontColor=default;" vertex="1" parent="1">
          <mxGeometry x="40" y="210" width="310" height="30" as="geometry" />
        </mxCell>
        <mxCell id="mTyOfikyn7oOmh0rxIlr-40" style="edgeStyle=orthogonalEdgeStyle;rounded=0;orthogonalLoop=1;jettySize=auto;html=1;" edge="1" parent="1" source="gEWx3QEfxUd5CWkfhM15-10" target="Lsbw4g7mnwXpiIo-o1B4-7">
          <mxGeometry relative="1" as="geometry">
            <Array as="points">
              <mxPoint x="480" y="190" />
              <mxPoint x="120" y="190" />
            </Array>
          </mxGeometry>
        </mxCell>
        <mxCell id="gEWx3QEfxUd5CWkfhM15-10" value="Indústria = {&lt;u&gt;ESTRUTURA&lt;/u&gt;, RECURSO_GERADO*}" style="text;html=1;align=left;verticalAlign=middle;resizable=0;points=[];autosize=1;strokeColor=none;fillColor=none;" vertex="1" parent="1">
          <mxGeometry x="380" y="210" width="290" height="30" as="geometry" />
        </mxCell>
        <mxCell id="Lsbw4g7mnwXpiIo-o1B4-8" value="Tecnologia = {&lt;u&gt;Nome, nivel&lt;/u&gt;, complexidade*, eficiencia_produtiva, poder_destrutivo, capacidade_de_transporte, alcance}" style="text;html=1;align=left;verticalAlign=middle;resizable=0;points=[];autosize=1;strokeColor=none;fillColor=none;fontSize=12;fontFamily=Helvetica;fontColor=default;" vertex="1" parent="1">
          <mxGeometry x="50" y="280" width="660" height="30" as="geometry" />
        </mxCell>
        <mxCell id="mTyOfikyn7oOmh0rxIlr-20" style="edgeStyle=orthogonalEdgeStyle;rounded=0;orthogonalLoop=1;jettySize=auto;html=1;endArrow=none;endFill=0;" edge="1" parent="1" source="Chm7QgpPJBf-2q2Y1dln-6">
          <mxGeometry relative="1" as="geometry">
            <mxPoint x="130" y="-20" as="targetPoint" />
            <Array as="points">
              <mxPoint x="-310" y="-20" />
            </Array>
          </mxGeometry>
        </mxCell>
        <mxCell id="Chm7QgpPJBf-2q2Y1dln-6" value="Estoque = {&lt;u&gt;PLANETA&lt;/u&gt;, &lt;u&gt;RECURSO&lt;/u&gt;, &lt;u&gt;turno,&lt;/u&gt;&amp;nbsp;quantidade*}" style="text;html=1;align=right;verticalAlign=middle;resizable=0;points=[];autosize=1;strokeColor=none;fillColor=none;" vertex="1" parent="1">
          <mxGeometry x="-430" y="60" width="310" height="30" as="geometry" />
        </mxCell>
        <mxCell id="mTyOfikyn7oOmh0rxIlr-27" style="edgeStyle=orthogonalEdgeStyle;rounded=0;orthogonalLoop=1;jettySize=auto;html=1;" edge="1" parent="1" source="gEWx3QEfxUd5CWkfhM15-18" target="Lsbw4g7mnwXpiIo-o1B4-4">
          <mxGeometry relative="1" as="geometry">
            <mxPoint x="30" y="150" as="targetPoint" />
            <Array as="points">
              <mxPoint x="-230" y="135" />
              <mxPoint x="-80" y="135" />
              <mxPoint x="-80" y="160" />
              <mxPoint x="140" y="160" />
            </Array>
          </mxGeometry>
        </mxCell>
        <mxCell id="gEWx3QEfxUd5CWkfhM15-18" value="Prioridade_producao = {&lt;u&gt;PLANETA&lt;/u&gt;, &lt;u&gt;RECURSO&lt;/u&gt;,&lt;u&gt;turno&lt;/u&gt;,&lt;u&gt;ordem&lt;/u&gt;}" style="text;html=1;align=right;verticalAlign=middle;resizable=0;points=[];autosize=1;strokeColor=none;fillColor=none;" vertex="1" parent="1">
          <mxGeometry x="-470" y="140" width="350" height="30" as="geometry" />
        </mxCell>
        <mxCell id="gEWx3QEfxUd5CWkfhM15-38" value="estoque_gasto_batalha = {&lt;u&gt;ID_BATALHA&lt;/u&gt;, &lt;u&gt;PLANETA, RECURSO, TURNO&lt;/u&gt;, qtd*}" style="text;html=1;align=right;verticalAlign=middle;resizable=0;points=[];autosize=1;strokeColor=none;fillColor=none;" vertex="1" parent="1">
          <mxGeometry x="-560" y="330" width="450" height="30" as="geometry" />
        </mxCell>
        <mxCell id="gEWx3QEfxUd5CWkfhM15-39" value="povo_morto_batalha = {&lt;u&gt;ID_BATALHA&lt;/u&gt;, &lt;u&gt;PLANETA, ESPECIE, TIPO, TURNO&lt;/u&gt;, qtd*}" style="text;html=1;align=left;verticalAlign=middle;resizable=0;points=[];autosize=1;strokeColor=none;fillColor=none;" vertex="1" parent="1">
          <mxGeometry x="50" y="-260" width="460" height="30" as="geometry" />
        </mxCell>
        <mxCell id="AogvxfoWtlMNjZo7INhP-4" value="Povo = {&lt;u&gt;PLANETA, ESPECIE, tipo, turno&lt;/u&gt;, qtd*}" style="text;html=1;align=left;verticalAlign=middle;resizable=0;points=[];autosize=1;strokeColor=none;fillColor=none;" vertex="1" parent="1">
          <mxGeometry x="860" y="-160" width="270" height="30" as="geometry" />
        </mxCell>
        <mxCell id="AogvxfoWtlMNjZo7INhP-5" value="Civil = {&lt;u&gt;PLANETA, ESPECIE&lt;/u&gt;, tipo*, &lt;u&gt;TURNO&lt;/u&gt;}" style="text;html=1;align=left;verticalAlign=middle;resizable=0;points=[];autosize=1;strokeColor=none;fillColor=none;fontSize=12;fontFamily=Helvetica;fontColor=default;" vertex="1" parent="1">
          <mxGeometry x="1380" y="-60" width="260" height="30" as="geometry" />
        </mxCell>
        <mxCell id="Chm7QgpPJBf-2q2Y1dln-1" value="Conhecimento = {&lt;u&gt;PLANETA&lt;/u&gt;, &lt;u&gt;ESPECIE&lt;/u&gt;, TIPO*,&amp;nbsp;TURNO*, &lt;u&gt;NOME, NIVEL&lt;/u&gt;}" style="text;html=1;align=left;verticalAlign=middle;resizable=0;points=[];autosize=1;strokeColor=none;fillColor=none;" vertex="1" parent="1">
          <mxGeometry x="820" y="260" width="410" height="30" as="geometry" />
        </mxCell>
        <mxCell id="mTyOfikyn7oOmh0rxIlr-28" style="edgeStyle=orthogonalEdgeStyle;rounded=0;orthogonalLoop=1;jettySize=auto;html=1;" edge="1" parent="1" source="Chm7QgpPJBf-2q2Y1dln-4" target="Lsbw4g7mnwXpiIo-o1B4-3">
          <mxGeometry relative="1" as="geometry">
            <Array as="points">
              <mxPoint x="200" y="-20" />
              <mxPoint x="130" y="-20" />
            </Array>
          </mxGeometry>
        </mxCell>
        <mxCell id="mTyOfikyn7oOmh0rxIlr-29" style="edgeStyle=orthogonalEdgeStyle;rounded=0;orthogonalLoop=1;jettySize=auto;html=1;exitX=0.243;exitY=0.06;exitDx=0;exitDy=0;exitPerimeter=0;" edge="1" parent="1" source="Chm7QgpPJBf-2q2Y1dln-4" target="Lsbw4g7mnwXpiIo-o1B4-1">
          <mxGeometry relative="1" as="geometry">
            <Array as="points">
              <mxPoint x="130" y="-70" />
              <mxPoint x="130" y="-70" />
            </Array>
          </mxGeometry>
        </mxCell>
        <mxCell id="Chm7QgpPJBf-2q2Y1dln-4" value="Colonia = {&lt;u&gt;IMPERIO&lt;/u&gt;, &lt;u&gt;PLANETA&lt;/u&gt;, &lt;u&gt;turno_inicial&lt;/u&gt;, turno_final}" style="text;html=1;align=left;verticalAlign=middle;resizable=0;points=[];autosize=1;strokeColor=none;fillColor=none;" vertex="1" parent="1">
          <mxGeometry x="50" y="-60" width="330" height="30" as="geometry" />
        </mxCell>
        <mxCell id="Lsbw4g7mnwXpiIo-o1B4-3" value="Planeta = {&lt;u&gt;Nome&lt;/u&gt;, &lt;span style=&quot;text-decoration: underline double;&quot;&gt;coordenadas*&lt;/span&gt;, atmosfera, populacao_max, temperatura, estruturas_max, gravidade, qtd_agua, fertilidade, poderio_militar}" style="text;html=1;align=left;verticalAlign=middle;resizable=0;points=[];autosize=1;strokeColor=none;fillColor=none;fontSize=12;fontFamily=Helvetica;fontColor=default;" vertex="1" parent="1">
          <mxGeometry x="50" y="10" width="770" height="30" as="geometry" />
        </mxCell>
        <mxCell id="Chm7QgpPJBf-2q2Y1dln-7" value="Exploração = {&lt;u&gt;IMPÉRIO&lt;/u&gt;, &lt;u&gt;PLANETA_EXPLORADOR&lt;/u&gt;, &lt;u&gt;TURNO_INICIAL&lt;/u&gt;, &lt;u&gt;PLANETA_EXPLORADO&lt;/u&gt;, &lt;u&gt;turno&lt;/u&gt;, incerteza*, poderio militar, atmosfera, qtd população, qtd estruturas, qtd água, gravidade, temperatura, fertilidade}" style="text;html=1;align=right;verticalAlign=middle;resizable=0;points=[];autosize=1;strokeColor=none;fillColor=none;" vertex="1" parent="1">
          <mxGeometry x="-1270" y="-90" width="1190" height="30" as="geometry" />
        </mxCell>
        <mxCell id="Chm7QgpPJBf-2q2Y1dln-8" value="&lt;div style=&quot;&quot;&gt;&lt;span style=&quot;background-color: initial;&quot;&gt;Batalha = {&lt;/span&gt;&lt;u style=&quot;background-color: initial;&quot;&gt;ID&lt;/u&gt;&lt;span style=&quot;background-color: initial;&quot;&gt;, &lt;/span&gt;&lt;span style=&quot;background-color: initial; text-decoration-line: underline; text-decoration-style: double;&quot;&gt;IMPÉRIO*,PLANETA_ATACANTE*,TURNO_INICIAL*,PLANETA_ATACADO*,turno*&lt;/span&gt;&lt;span style=&quot;background-color: initial;&quot;&gt;, PLANETA_VENCEDOR*, poderio_militar_atacante, poderio_militar_defensor, violencia}&amp;nbsp;&lt;/span&gt;&lt;/div&gt;" style="text;html=1;align=left;verticalAlign=middle;resizable=0;points=[];autosize=1;strokeColor=none;fillColor=none;" vertex="1" parent="1">
          <mxGeometry x="-1140" y="-200" width="1020" height="30" as="geometry" />
        </mxCell>
        <mxCell id="mTyOfikyn7oOmh0rxIlr-23" style="edgeStyle=orthogonalEdgeStyle;rounded=0;orthogonalLoop=1;jettySize=auto;html=1;" edge="1" parent="1" source="Lsbw4g7mnwXpiIo-o1B4-13" target="Lsbw4g7mnwXpiIo-o1B4-7">
          <mxGeometry relative="1" as="geometry">
            <Array as="points">
              <mxPoint x="-260" y="260" />
              <mxPoint x="10" y="260" />
              <mxPoint x="10" y="190" />
              <mxPoint x="120" y="190" />
            </Array>
          </mxGeometry>
        </mxCell>
        <mxCell id="mTyOfikyn7oOmh0rxIlr-26" style="edgeStyle=orthogonalEdgeStyle;rounded=0;orthogonalLoop=1;jettySize=auto;html=1;" edge="1" parent="1" source="Lsbw4g7mnwXpiIo-o1B4-13" target="Lsbw4g7mnwXpiIo-o1B4-4">
          <mxGeometry relative="1" as="geometry">
            <Array as="points">
              <mxPoint x="-200" y="190" />
              <mxPoint x="-80" y="190" />
              <mxPoint x="-80" y="160" />
              <mxPoint x="140" y="160" />
            </Array>
          </mxGeometry>
        </mxCell>
        <mxCell id="Lsbw4g7mnwXpiIo-o1B4-13" value="Recursos_para_estrutura = {&lt;u&gt;ESTRUTURA, RECURSO&lt;/u&gt;, qtd*}" style="text;html=1;align=right;verticalAlign=middle;resizable=0;points=[];autosize=1;strokeColor=none;fillColor=none;fontSize=12;fontFamily=Helvetica;fontColor=default;" vertex="1" parent="1">
          <mxGeometry x="-470" y="220" width="350" height="30" as="geometry" />
        </mxCell>
        <mxCell id="mTyOfikyn7oOmh0rxIlr-22" style="edgeStyle=orthogonalEdgeStyle;rounded=0;orthogonalLoop=1;jettySize=auto;html=1;" edge="1" parent="1" source="Chm7QgpPJBf-2q2Y1dln-6" target="Lsbw4g7mnwXpiIo-o1B4-4">
          <mxGeometry relative="1" as="geometry">
            <Array as="points">
              <mxPoint x="-260" y="100" />
              <mxPoint x="-470" y="100" />
              <mxPoint x="-470" y="190" />
              <mxPoint x="-80" y="190" />
              <mxPoint x="-80" y="160" />
              <mxPoint x="140" y="160" />
            </Array>
          </mxGeometry>
        </mxCell>
        <mxCell id="mTyOfikyn7oOmh0rxIlr-25" style="edgeStyle=orthogonalEdgeStyle;rounded=0;orthogonalLoop=1;jettySize=auto;html=1;startArrow=baseDash;startFill=0;startSize=160;" edge="1" parent="1" source="gEWx3QEfxUd5CWkfhM15-38" target="Chm7QgpPJBf-2q2Y1dln-6">
          <mxGeometry relative="1" as="geometry">
            <mxPoint x="-430" y="75" as="targetPoint" />
            <Array as="points">
              <mxPoint x="-230" y="290" />
              <mxPoint x="-530" y="290" />
              <mxPoint x="-530" y="10" />
              <mxPoint x="-330" y="10" />
            </Array>
          </mxGeometry>
        </mxCell>
        <mxCell id="mTyOfikyn7oOmh0rxIlr-30" style="edgeStyle=orthogonalEdgeStyle;rounded=0;orthogonalLoop=1;jettySize=auto;html=1;startArrow=baseDash;startFill=0;targetPerimeterSpacing=8;startSize=280;endArrow=none;endFill=0;" edge="1" parent="1" source="Chm7QgpPJBf-2q2Y1dln-8">
          <mxGeometry relative="1" as="geometry">
            <mxPoint x="260" y="-150" as="targetPoint" />
            <Array as="points">
              <mxPoint x="-920" y="-240" />
              <mxPoint x="-10" y="-240" />
              <mxPoint x="-10" y="-150" />
              <mxPoint x="50" y="-150" />
            </Array>
          </mxGeometry>
        </mxCell>
        <mxCell id="mTyOfikyn7oOmh0rxIlr-31" style="edgeStyle=orthogonalEdgeStyle;rounded=0;orthogonalLoop=1;jettySize=auto;html=1;" edge="1" parent="1" source="Chm7QgpPJBf-2q2Y1dln-8" target="Lsbw4g7mnwXpiIo-o1B4-3">
          <mxGeometry relative="1" as="geometry">
            <Array as="points">
              <mxPoint x="-700" y="-140" />
              <mxPoint x="-40" y="-140" />
              <mxPoint x="-40" y="-20" />
              <mxPoint x="130" y="-20" />
            </Array>
          </mxGeometry>
        </mxCell>
        <mxCell id="mTyOfikyn7oOmh0rxIlr-35" style="edgeStyle=orthogonalEdgeStyle;rounded=0;orthogonalLoop=1;jettySize=auto;html=1;jumpStyle=arc;jumpSize=20;" edge="1" parent="1" source="gEWx3QEfxUd5CWkfhM15-38">
          <mxGeometry relative="1" as="geometry">
            <Array as="points">
              <mxPoint x="-360" y="370" />
              <mxPoint x="-1300" y="370" />
              <mxPoint x="-1300" y="-310" />
              <mxPoint x="-1071" y="-310" />
            </Array>
            <mxPoint x="-1071" y="-201" as="targetPoint" />
          </mxGeometry>
        </mxCell>
        <mxCell id="mTyOfikyn7oOmh0rxIlr-34" style="edgeStyle=orthogonalEdgeStyle;rounded=0;orthogonalLoop=1;jettySize=auto;html=1;jumpStyle=none;" edge="1" parent="1" source="Chm7QgpPJBf-2q2Y1dln-8" target="Lsbw4g7mnwXpiIo-o1B4-3">
          <mxGeometry relative="1" as="geometry">
            <mxPoint x="50" y="85" as="targetPoint" />
            <Array as="points">
              <mxPoint x="-550" y="-140" />
              <mxPoint x="-40" y="-140" />
              <mxPoint x="-40" y="-20" />
              <mxPoint x="130" y="-20" />
            </Array>
          </mxGeometry>
        </mxCell>
        <mxCell id="mTyOfikyn7oOmh0rxIlr-36" style="edgeStyle=orthogonalEdgeStyle;rounded=0;orthogonalLoop=1;jettySize=auto;html=1;" edge="1" parent="1" source="Lsbw4g7mnwXpiIo-o1B4-14" target="Lsbw4g7mnwXpiIo-o1B4-4">
          <mxGeometry relative="1" as="geometry">
            <mxPoint x="400" y="369" as="sourcePoint" />
            <mxPoint x="50.899999999999864" y="189.67000000000007" as="targetPoint" />
            <Array as="points">
              <mxPoint x="330" y="399" />
              <mxPoint x="10" y="399" />
              <mxPoint x="10" y="269" />
              <mxPoint x="-470" y="269" />
              <mxPoint x="-470" y="190" />
              <mxPoint x="-80" y="190" />
              <mxPoint x="-80" y="160" />
              <mxPoint x="140" y="160" />
            </Array>
          </mxGeometry>
        </mxCell>
        <mxCell id="mTyOfikyn7oOmh0rxIlr-46" style="edgeStyle=orthogonalEdgeStyle;rounded=0;orthogonalLoop=1;jettySize=auto;html=1;" edge="1" parent="1" source="gEWx3QEfxUd5CWkfhM15-10" target="Lsbw4g7mnwXpiIo-o1B4-4">
          <mxGeometry relative="1" as="geometry">
            <Array as="points">
              <mxPoint x="580" y="160" />
              <mxPoint x="140" y="160" />
            </Array>
          </mxGeometry>
        </mxCell>
        <mxCell id="mTyOfikyn7oOmh0rxIlr-47" style="edgeStyle=orthogonalEdgeStyle;rounded=0;orthogonalLoop=1;jettySize=auto;html=1;" edge="1" parent="1" source="AogvxfoWtlMNjZo7INhP-4" target="Lsbw4g7mnwXpiIo-o1B4-3">
          <mxGeometry relative="1" as="geometry">
            <mxPoint x="790" y="70" as="targetPoint" />
            <Array as="points">
              <mxPoint x="940" y="-20" />
              <mxPoint x="130" y="-20" />
            </Array>
          </mxGeometry>
        </mxCell>
        <mxCell id="mTyOfikyn7oOmh0rxIlr-48" style="edgeStyle=orthogonalEdgeStyle;rounded=0;orthogonalLoop=1;jettySize=auto;html=1;" edge="1" parent="1" source="AogvxfoWtlMNjZo7INhP-4" target="Lsbw4g7mnwXpiIo-o1B4-5">
          <mxGeometry relative="1" as="geometry">
            <Array as="points">
              <mxPoint x="990" y="50" />
              <mxPoint x="130" y="50" />
            </Array>
          </mxGeometry>
        </mxCell>
        <mxCell id="mTyOfikyn7oOmh0rxIlr-49" style="edgeStyle=orthogonalEdgeStyle;rounded=0;orthogonalLoop=1;jettySize=auto;html=1;startArrow=baseDash;startFill=0;startSize=180;" edge="1" parent="1" source="AogvxfoWtlMNjZo7INhP-5" target="AogvxfoWtlMNjZo7INhP-4">
          <mxGeometry relative="1" as="geometry">
            <Array as="points">
              <mxPoint x="1520" y="-180" />
              <mxPoint x="995" y="-180" />
            </Array>
          </mxGeometry>
        </mxCell>
        <mxCell id="mTyOfikyn7oOmh0rxIlr-51" style="edgeStyle=orthogonalEdgeStyle;rounded=0;orthogonalLoop=1;jettySize=auto;html=1;startArrow=baseDash;startFill=0;startSize=260;" edge="1" parent="1" source="gEWx3QEfxUd5CWkfhM15-16" target="Chm7QgpPJBf-2q2Y1dln-4">
          <mxGeometry relative="1" as="geometry">
            <Array as="points">
              <mxPoint x="260" y="-150" />
              <mxPoint x="380" y="-150" />
              <mxPoint x="380" y="-70" />
              <mxPoint x="190" y="-70" />
            </Array>
          </mxGeometry>
        </mxCell>
        <mxCell id="mTyOfikyn7oOmh0rxIlr-52" style="edgeStyle=orthogonalEdgeStyle;rounded=0;orthogonalLoop=1;jettySize=auto;html=1;startArrow=baseDash;startFill=0;startSize=250;" edge="1" parent="1" source="gEWx3QEfxUd5CWkfhM15-16" target="AogvxfoWtlMNjZo7INhP-4">
          <mxGeometry relative="1" as="geometry">
            <Array as="points">
              <mxPoint x="530" y="-230" />
              <mxPoint x="790" y="-230" />
              <mxPoint x="790" y="-180" />
              <mxPoint x="995" y="-180" />
            </Array>
          </mxGeometry>
        </mxCell>
        <mxCell id="mTyOfikyn7oOmh0rxIlr-53" style="edgeStyle=orthogonalEdgeStyle;rounded=0;orthogonalLoop=1;jettySize=auto;html=1;jumpStyle=arc;jumpSize=20;startArrow=baseDash;startFill=0;startSize=300;endArrow=none;endFill=0;" edge="1" parent="1" source="Chm7QgpPJBf-2q2Y1dln-7">
          <mxGeometry relative="1" as="geometry">
            <Array as="points">
              <mxPoint x="-1010" y="-100" />
              <mxPoint x="-10" y="-100" />
              <mxPoint x="-10" y="-150" />
              <mxPoint x="50" y="-150" />
            </Array>
            <mxPoint x="260" y="-150" as="targetPoint" />
          </mxGeometry>
        </mxCell>
        <mxCell id="mTyOfikyn7oOmh0rxIlr-55" style="edgeStyle=orthogonalEdgeStyle;rounded=0;orthogonalLoop=1;jettySize=auto;html=1;endArrow=none;endFill=0;" edge="1" parent="1" source="Chm7QgpPJBf-2q2Y1dln-7">
          <mxGeometry relative="1" as="geometry">
            <mxPoint x="130" y="-20" as="targetPoint" />
            <Array as="points">
              <mxPoint x="-790" y="-20" />
            </Array>
          </mxGeometry>
        </mxCell>
        <mxCell id="mTyOfikyn7oOmh0rxIlr-57" style="edgeStyle=orthogonalEdgeStyle;rounded=0;orthogonalLoop=1;jettySize=auto;html=1;startArrow=baseDash;startFill=0;jumpSize=20;startSize=260;jumpStyle=arc;endArrow=none;endFill=0;" edge="1" parent="1" source="gEWx3QEfxUd5CWkfhM15-37">
          <mxGeometry relative="1" as="geometry">
            <Array as="points">
              <mxPoint x="-1040" y="40" />
              <mxPoint x="-1270" y="40" />
              <mxPoint x="-1270" y="-110" />
              <mxPoint x="-1010" y="-110" />
              <mxPoint x="-1010" y="-100" />
              <mxPoint x="-10" y="-100" />
              <mxPoint x="-10" y="-150" />
            </Array>
            <mxPoint x="260" y="-150" as="targetPoint" />
          </mxGeometry>
        </mxCell>
        <mxCell id="mTyOfikyn7oOmh0rxIlr-58" style="edgeStyle=orthogonalEdgeStyle;rounded=0;orthogonalLoop=1;jettySize=auto;html=1;startArrow=baseDash;startFill=0;startSize=80;" edge="1" parent="1" source="Chm7QgpPJBf-2q2Y1dln-1" target="Lsbw4g7mnwXpiIo-o1B4-8">
          <mxGeometry relative="1" as="geometry">
            <mxPoint x="147.24137931034483" y="300" as="targetPoint" />
            <Array as="points">
              <mxPoint x="1170" y="320" />
              <mxPoint x="150" y="320" />
            </Array>
          </mxGeometry>
        </mxCell>
        <mxCell id="mTyOfikyn7oOmh0rxIlr-59" style="edgeStyle=orthogonalEdgeStyle;rounded=0;orthogonalLoop=1;jettySize=auto;html=1;startArrow=baseDash;startFill=0;startSize=180;sourcePerimeterSpacing=-1;" edge="1" parent="1" source="Chm7QgpPJBf-2q2Y1dln-1" target="AogvxfoWtlMNjZo7INhP-4">
          <mxGeometry relative="1" as="geometry">
            <Array as="points">
              <mxPoint x="1020" y="240" />
              <mxPoint x="1670" y="240" />
              <mxPoint x="1670" y="-180" />
              <mxPoint x="995" y="-180" />
            </Array>
          </mxGeometry>
        </mxCell>
        <mxCell id="mTyOfikyn7oOmh0rxIlr-60" style="edgeStyle=orthogonalEdgeStyle;rounded=0;orthogonalLoop=1;jettySize=auto;html=1;startArrow=baseDash;startFill=0;startSize=180;" edge="1" parent="1" source="gEWx3QEfxUd5CWkfhM15-39" target="AogvxfoWtlMNjZo7INhP-4">
          <mxGeometry relative="1" as="geometry">
            <Array as="points">
              <mxPoint x="360" y="-290" />
              <mxPoint x="790" y="-290" />
              <mxPoint x="790" y="-180" />
              <mxPoint x="995" y="-180" />
            </Array>
          </mxGeometry>
        </mxCell>
        <mxCell id="mTyOfikyn7oOmh0rxIlr-61" style="edgeStyle=orthogonalEdgeStyle;rounded=0;orthogonalLoop=1;jettySize=auto;html=1;" edge="1" parent="1" source="gEWx3QEfxUd5CWkfhM15-39" target="Chm7QgpPJBf-2q2Y1dln-8">
          <mxGeometry relative="1" as="geometry">
            <Array as="points">
              <mxPoint x="220" y="-310" />
              <mxPoint x="-1070" y="-310" />
            </Array>
          </mxGeometry>
        </mxCell>
        <mxCell id="mTyOfikyn7oOmh0rxIlr-69" style="edgeStyle=orthogonalEdgeStyle;rounded=0;orthogonalLoop=1;jettySize=auto;html=1;startArrow=baseDash;startFill=0;startSize=180;" edge="1" parent="1" source="Chm7QgpPJBf-2q2Y1dln-9" target="Chm7QgpPJBf-2q2Y1dln-5">
          <mxGeometry relative="1" as="geometry">
            <Array as="points">
              <mxPoint x="1230" y="160" />
              <mxPoint x="870" y="160" />
            </Array>
          </mxGeometry>
        </mxCell>
        <mxCell id="mTyOfikyn7oOmh0rxIlr-71" style="edgeStyle=orthogonalEdgeStyle;rounded=0;orthogonalLoop=1;jettySize=auto;html=1;startArrow=baseDash;startFill=0;startSize=160;sourcePerimeterSpacing=0;" edge="1" parent="1" source="Chm7QgpPJBf-2q2Y1dln-9" target="AogvxfoWtlMNjZo7INhP-5">
          <mxGeometry relative="1" as="geometry">
            <Array as="points">
              <mxPoint x="1420" y="220" />
              <mxPoint x="1620" y="220" />
              <mxPoint x="1620" y="10" />
              <mxPoint x="1510" y="10" />
            </Array>
          </mxGeometry>
        </mxCell>
        <mxCell id="Chm7QgpPJBf-2q2Y1dln-9" value="Atuação = {PLANETA*, &lt;u&gt;ESTRUTURA&lt;/u&gt;, TURNO*&lt;u&gt;,&lt;/u&gt; &lt;u&gt;PLANETA, ESPECIE, TURNO&lt;/u&gt;, qtd trabalhadores*}" style="text;html=1;align=left;verticalAlign=middle;resizable=0;points=[];autosize=1;strokeColor=none;fillColor=none;" vertex="1" parent="1">
          <mxGeometry x="1080" y="170" width="550" height="30" as="geometry" />
        </mxCell>
        <mxCell id="mTyOfikyn7oOmh0rxIlr-66" style="edgeStyle=orthogonalEdgeStyle;rounded=0;orthogonalLoop=1;jettySize=auto;html=1;jumpStyle=arc;jumpSize=20;" edge="1" parent="1" source="Chm7QgpPJBf-2q2Y1dln-5" target="Lsbw4g7mnwXpiIo-o1B4-3">
          <mxGeometry relative="1" as="geometry">
            <Array as="points">
              <mxPoint x="800" y="120" />
              <mxPoint x="-40" y="120" />
              <mxPoint x="-40" y="-20" />
              <mxPoint x="130" y="-20" />
            </Array>
          </mxGeometry>
        </mxCell>
        <mxCell id="mTyOfikyn7oOmh0rxIlr-68" style="edgeStyle=orthogonalEdgeStyle;rounded=0;orthogonalLoop=1;jettySize=auto;html=1;" edge="1" parent="1" source="Chm7QgpPJBf-2q2Y1dln-5" target="Lsbw4g7mnwXpiIo-o1B4-7">
          <mxGeometry relative="1" as="geometry">
            <Array as="points">
              <mxPoint x="875" y="225" />
              <mxPoint x="720" y="225" />
              <mxPoint x="720" y="260" />
              <mxPoint x="130" y="260" />
            </Array>
          </mxGeometry>
        </mxCell>
        <mxCell id="Chm7QgpPJBf-2q2Y1dln-5" value="Construção = {&lt;u&gt;PLANETA&lt;/u&gt;, &lt;u&gt;ESTRUTURA&lt;/u&gt;, &lt;u&gt;turno&lt;/u&gt;,&amp;nbsp;quantidade*}" style="text;html=1;align=left;verticalAlign=middle;resizable=0;points=[];autosize=1;strokeColor=none;fillColor=none;" vertex="1" parent="1">
          <mxGeometry x="700" y="170" width="350" height="30" as="geometry" />
        </mxCell>
        <mxCell id="mTyOfikyn7oOmh0rxIlr-74" style="edgeStyle=orthogonalEdgeStyle;rounded=0;orthogonalLoop=1;jettySize=auto;html=1;jumpStyle=arc;jumpSize=15;endArrow=none;endFill=0;" edge="1" parent="1" source="gEWx3QEfxUd5CWkfhM15-18">
          <mxGeometry relative="1" as="geometry">
            <mxPoint x="130" y="-20" as="targetPoint" />
            <Array as="points">
              <mxPoint x="-300" y="120" />
              <mxPoint x="-40" y="120" />
              <mxPoint x="-40" y="-20" />
              <mxPoint x="50" y="-20" />
            </Array>
          </mxGeometry>
        </mxCell>
        <mxCell id="mTyOfikyn7oOmh0rxIlr-80" value="" style="group" connectable="0" vertex="1" parent="1">
          <mxGeometry x="-310" y="165.14" width="30" height="4.860000000000014" as="geometry" />
        </mxCell>
        <mxCell id="mTyOfikyn7oOmh0rxIlr-78" value="" style="endArrow=none;html=1;rounded=0;" edge="1" parent="mTyOfikyn7oOmh0rxIlr-80">
          <mxGeometry width="50" height="50" relative="1" as="geometry">
            <mxPoint as="sourcePoint" />
            <mxPoint x="30" as="targetPoint" />
          </mxGeometry>
        </mxCell>
        <mxCell id="mTyOfikyn7oOmh0rxIlr-79" value="" style="endArrow=none;html=1;rounded=0;" edge="1" parent="mTyOfikyn7oOmh0rxIlr-80">
          <mxGeometry width="50" height="50" relative="1" as="geometry">
            <mxPoint y="1.8600000000000136" as="sourcePoint" />
            <mxPoint x="30" y="1.8600000000000136" as="targetPoint" />
          </mxGeometry>
        </mxCell>
        <mxCell id="mTyOfikyn7oOmh0rxIlr-87" value="" style="group" connectable="0" vertex="1" parent="1">
          <mxGeometry x="-190" y="165.14" width="60" height="4.860000000000014" as="geometry" />
        </mxCell>
        <mxCell id="mTyOfikyn7oOmh0rxIlr-81" value="" style="group" connectable="0" vertex="1" parent="mTyOfikyn7oOmh0rxIlr-87">
          <mxGeometry width="30" height="4.86" as="geometry" />
        </mxCell>
        <mxCell id="mTyOfikyn7oOmh0rxIlr-82" value="" style="endArrow=none;html=1;rounded=0;" edge="1" parent="mTyOfikyn7oOmh0rxIlr-81">
          <mxGeometry width="50" height="50" relative="1" as="geometry">
            <mxPoint as="sourcePoint" />
            <mxPoint x="30" as="targetPoint" />
          </mxGeometry>
        </mxCell>
        <mxCell id="mTyOfikyn7oOmh0rxIlr-83" value="" style="endArrow=none;html=1;rounded=0;" edge="1" parent="mTyOfikyn7oOmh0rxIlr-81">
          <mxGeometry width="50" height="50" relative="1" as="geometry">
            <mxPoint y="1.8600000000000003" as="sourcePoint" />
            <mxPoint x="30" y="1.8600000000000003" as="targetPoint" />
          </mxGeometry>
        </mxCell>
        <mxCell id="mTyOfikyn7oOmh0rxIlr-84" value="" style="group" connectable="0" vertex="1" parent="mTyOfikyn7oOmh0rxIlr-87">
          <mxGeometry x="30" width="30" height="4.86" as="geometry" />
        </mxCell>
        <mxCell id="mTyOfikyn7oOmh0rxIlr-85" value="" style="endArrow=none;html=1;rounded=0;" edge="1" parent="mTyOfikyn7oOmh0rxIlr-84">
          <mxGeometry width="50" height="50" relative="1" as="geometry">
            <mxPoint as="sourcePoint" />
            <mxPoint x="30" as="targetPoint" />
          </mxGeometry>
        </mxCell>
        <mxCell id="mTyOfikyn7oOmh0rxIlr-86" value="" style="endArrow=none;html=1;rounded=0;" edge="1" parent="mTyOfikyn7oOmh0rxIlr-84">
          <mxGeometry width="50" height="50" relative="1" as="geometry">
            <mxPoint y="1.8600000000000003" as="sourcePoint" />
            <mxPoint x="30" y="1.8600000000000003" as="targetPoint" />
          </mxGeometry>
        </mxCell>
        <mxCell id="mTyOfikyn7oOmh0rxIlr-88" value="&lt;font style=&quot;font-size: 30px;&quot;&gt;* = NOT NULL&lt;/font&gt;" style="text;html=1;align=center;verticalAlign=middle;resizable=0;points=[];autosize=1;strokeColor=none;fillColor=none;fontStyle=1" vertex="1" parent="1">
          <mxGeometry x="1460" y="-310" width="220" height="50" as="geometry" />
        </mxCell>
      </root>
    </mxGraphModel>
  </diagram>
</mxfile>
